<?xml version="1.0"?><svg xmlns="http://www.w3.org/2000/svg" viewBox="88 70 340 345" role="img" aria-label="OpenTeams"><defs><style>.cls-1{fill:#FF8A69}.cls-2{fill:#FAA944}.cls-3{fill:#4D75FE}.cls-4{fill:#022791}</style></defs><path class="cls-4" d="M304.34,211.31c34.25,26.64,74.27,18.51,105.05-9.38,5.59-5.07,12.57-9.18,6.92-15.85-2.72-3.21-20.66-21.35-23.06-21.32-2.68.04-16.65,11.93-20.94,14.46-15.52,9.16-32.97,10.06-47.37-2.09-21-17.73-14.26-39.65-2.74-60.4,3.87-6.96,11.67-11.87,5.55-19.22-2.72-3.26-17.21-18.16-19.97-19.65-6.31-3.4-18.58,16.25-21.56,21.02-25.19,40.24-20.28,82.55,18.13,112.43Z"></path><path class="cls-4" d="M328.73,162.74c24.69,32.39,63.99-10.43,34.66-33.29-22.45-17.49-52.06,10.45-34.66,33.29Z"></path><path class="cls-1" d="M205.3,271.76c-34.25-26.64-74.27-18.51-105.05,9.38-5.59,5.07-12.57,9.18-6.92,15.85,2.72,3.21,20.66,21.35,23.06,21.32,2.68-.04,16.65-11.93,20.94-14.46,15.52-9.16,32.97-10.06,47.37,2.09,21,17.73,14.26,39.65,2.74,60.4-3.87,6.96-11.67,11.87-5.55,19.22,2.72,3.26,17.21,18.16,19.97,19.65,6.31,3.4,18.58-16.25,21.56-21.02,25.19-40.24,20.28-82.55-18.13-112.43Z"></path><path class="cls-1" d="M180.92,320.34c-24.69-32.39-63.99,10.43-34.66,33.29,22.45,17.49,52.06-10.45,34.66-33.29Z"></path><path class="cls-3" d="M284.81,290.94c-26.64,34.25-18.51,74.27,9.38,105.05,5.07,5.59,9.18,12.57,15.85,6.92,3.21-2.72,21.35-20.66,21.32-23.06-.04-2.68-11.93-16.65-14.46-20.94-9.16-15.52-10.06-32.97,2.09-47.37,17.73-21,39.65-14.26,60.4-2.74,6.96,3.87,11.87,11.67,19.22,5.55,3.26-2.72,18.16-17.21,19.65-19.97,3.4-6.31-16.25-18.58-21.02-21.56-40.24-25.19-82.55-20.28-112.43,18.13Z"></path><path class="cls-3" d="M333.39,315.32c-32.39,24.69,10.43,63.99,33.29,34.66,17.49-22.45-10.45-52.06-33.29-34.66Z"></path><path class="cls-2" d="M224.97,192.5c26.64-34.25,18.51-74.27-9.38-105.05-5.07-5.59-9.18-12.57-15.85-6.92-3.21,2.72-21.35,20.66-21.32,23.06.04,2.68,11.93,16.65,14.46,20.94,9.16,15.52,10.06,32.97-2.09,47.37-17.73,21-39.65,14.26-60.4,2.74-6.96-3.87-11.87-11.67-19.22-5.55-3.26,2.72-18.16,17.21-19.65,19.97-3.4,6.31,16.25,18.58,21.02,21.56,40.24,25.19,82.55,20.28,112.43-18.13Z"></path><path class="cls-2" d="M176.39,168.11c32.39-24.69-10.43-63.99-33.29-34.66-17.49,22.45,10.45,52.06,33.29,34.66Z"></path></svg>
